<svg width="90" height="42" viewBox="0 0 90 42" fill="none" xmlns="http://www.w3.org/2000/svg">
<g clip-path="url(#clip0_5:113)">
<path fill-rule="evenodd" clip-rule="evenodd" d="M48.0841 15.1963C48.2292 14.7657 48.3468 14.3262 48.4359 13.8806C48.477 13.6184 48.4159 13.3505 48.2653 13.132C47.6 12.3686 46.892 11.6393 46.1861 10.9142C45.4141 10.1145 45.2457 9.2082 45.6231 8.16966C46.1499 6.71315 46.6574 5.25024 47.1372 3.7788C47.2622 3.336 47.4986 2.9326 47.8237 2.60707C48.1489 2.28155 48.552 2.04474 48.9946 1.91924C50.7796 1.34773 52.5474 0.729295 54.326 0.151382C55.4541 -0.215412 56.3924 0.100206 57.0982 1.06197C57.6498 1.81973 58.1887 2.58601 58.7147 3.36083C58.787 3.50397 58.9104 3.61474 59.0604 3.67122C59.2105 3.7277 59.3763 3.72575 59.525 3.66578C62.6182 2.71956 65.9237 2.71956 69.0169 3.66578C69.1723 3.73341 69.3479 3.73833 69.5069 3.6795C69.6658 3.62068 69.7959 3.50268 69.8699 3.35016C70.3753 2.58459 70.9148 1.84034 71.4501 1.09396C72.1474 0.123662 73.0794 -0.211147 74.2075 0.151382C76.0627 0.748488 77.9074 1.38185 79.752 1.99602C80.1288 2.11188 80.4715 2.31792 80.7506 2.59626C81.0297 2.8746 81.2367 3.21684 81.3535 3.59327C81.9123 5.22039 82.4838 6.84323 83.0318 8.47461C83.1701 8.86619 83.1942 9.28902 83.1014 9.69379C83.0085 10.0986 82.8024 10.4686 82.5072 10.7607C81.8376 11.4943 81.1616 12.2257 80.4493 12.9209C80.0698 13.292 79.9589 13.6417 80.1764 14.1343C80.3521 14.4861 80.4366 14.8765 80.4221 15.2695C80.4075 15.6625 80.2944 16.0455 80.0931 16.3834C79.8918 16.7212 79.6087 17.003 79.27 17.2029C78.9313 17.4028 78.5478 17.5143 78.1547 17.5272C77.6825 17.5526 77.2149 17.4238 76.8222 17.1604C76.4295 16.8969 76.133 16.513 75.9775 16.0664C75.6533 15.1494 75.3782 14.2111 75.1436 13.2664C74.9304 12.439 75.2375 11.7203 75.8068 11.1125C76.4864 10.3861 77.1709 9.66456 77.8605 8.94803C78.0737 8.72198 78.0993 8.52153 78.0481 8.18673C77.7901 6.52549 76.8475 5.65969 75.2076 5.34834C74.1413 5.14788 74.4335 4.92183 73.7554 5.86227C73.2841 6.51269 72.8298 7.17378 72.3692 7.83273C71.61 8.92031 70.5289 9.24446 69.3069 8.70493C66.4577 7.39354 63.2083 7.24964 60.2544 8.30401C59.894 8.4277 59.5464 8.5919 59.1881 8.73052C58.0323 9.19967 56.9831 8.91178 56.2495 7.90096C55.6652 7.097 55.0851 6.28665 54.5307 5.46349C54.3174 5.15428 54.1234 5.08177 53.7694 5.21612C53.0912 5.47415 52.3811 5.64262 51.7115 5.92838C51.4492 6.05322 51.2383 6.26495 51.1144 6.52762C50.8777 7.04796 50.754 7.61734 50.5322 8.14407C50.4646 8.28046 50.4462 8.43599 50.48 8.58441C50.5138 8.73282 50.5977 8.86503 50.7177 8.9587C51.3724 9.63044 51.9972 10.3256 52.6605 10.991C53.4047 11.7416 53.6414 12.601 53.3279 13.614C53.0678 14.4542 52.8694 15.32 52.5581 16.1346C52.1636 17.1732 51.0994 17.685 49.9884 17.4632C49.4672 17.3448 48.999 17.0592 48.6552 16.6499C48.3113 16.2406 48.1108 15.7302 48.0841 15.1963Z" fill="#7FC700"/>
<path fill-rule="evenodd" clip-rule="evenodd" d="M37.5601 30.7659C37.5601 27.8977 37.5601 25.0273 37.5601 22.159C37.5601 21.3402 37.7733 20.6087 38.4664 20.1651C38.8945 19.8864 39.3892 19.7267 39.8995 19.7024C43.0172 19.6619 46.135 19.6683 49.2527 19.6896C50.5898 19.6896 51.5985 20.694 51.5985 21.9394C51.5985 23.1848 50.5877 24.2233 49.2228 24.2361C47.0804 24.2589 44.9379 24.2589 42.7954 24.2361C42.2751 24.2361 42.0832 24.3833 42.1066 24.9228C42.1471 25.8206 42.1365 26.7205 42.1066 27.6183C42.0917 28.0832 42.2303 28.2474 42.7187 28.2453C44.382 28.2453 46.0497 28.2069 47.7066 28.3284C50.6602 28.5417 53.136 30.9088 53.6777 33.9028C54.1938 36.7796 52.701 39.8184 50.142 41.1299C49.0995 41.6651 47.9444 41.9436 46.7726 41.9424C44.591 41.9424 42.4094 41.9062 40.23 41.9552C38.6285 41.9915 37.5025 40.9295 37.5409 39.3152C37.6091 36.4661 37.5601 33.6149 37.5601 30.7659ZM44.8299 32.8344C44.1048 32.8344 43.3776 32.8494 42.6526 32.8344C42.273 32.8344 42.096 32.9261 42.1024 33.3441C42.1237 34.5085 42.1194 35.6728 42.1024 36.8372C42.1024 37.1976 42.2196 37.3618 42.595 37.3597C44.0877 37.3597 45.5805 37.3831 47.0626 37.3405C47.638 37.303 48.177 37.0462 48.5685 36.6228C48.9599 36.1995 49.1739 35.642 49.1662 35.0655C49.1586 34.489 48.9298 33.9374 48.5273 33.5246C48.1247 33.1118 47.579 32.8694 47.0029 32.8472C46.2864 32.8195 45.5613 32.8344 44.8363 32.8344H44.8299Z" fill="#4EAD00"/>
<path fill-rule="evenodd" clip-rule="evenodd" d="M0.00213623 30.7489C0.00213623 27.9183 0.00213623 25.087 0.00213623 22.255C0.00213623 21.402 0.200459 20.5831 0.983094 20.1225C1.40309 19.8652 1.88144 19.7184 2.3735 19.696C5.47205 19.6598 8.5706 19.664 11.6692 19.6832C13.1214 19.6832 14.0256 20.6173 14.0149 22.0055C14.0021 23.3128 13.0318 24.2276 11.6137 24.234C9.50891 24.2447 7.40625 24.2511 5.30145 24.234C4.75766 24.234 4.5508 24.3918 4.57213 24.9484C4.60838 25.8462 4.59345 26.7461 4.57213 27.6461C4.57213 28.0918 4.73846 28.241 5.18416 28.241C6.84753 28.241 8.51516 28.2005 10.1721 28.3242C13.4775 28.5716 16.0643 31.5038 16.2264 34.8199C16.2616 35.7395 16.1113 36.6567 15.7846 37.517C15.4579 38.3774 14.9614 39.1631 14.3246 39.8275C13.6879 40.4919 12.9239 41.0214 12.0783 41.3844C11.2326 41.7474 10.3225 41.9364 9.40229 41.9403C7.0885 41.9851 4.77258 41.9659 2.4588 41.9403C0.936178 41.9254 0.029859 40.9679 0.00213623 39.4261C0.00213623 39.3877 0.00213623 39.3493 0.00213623 39.3109C0.00213623 36.4676 0.00213623 33.6171 0.00213623 30.7595V30.7489ZM7.36573 32.8302C6.60229 32.8302 5.83671 32.8302 5.07327 32.8302C4.7342 32.8302 4.58279 32.9624 4.58492 33.3015C4.58492 34.4858 4.58492 35.6707 4.58492 36.8564C4.58492 37.187 4.71287 37.3533 5.05621 37.3512C6.58523 37.3512 8.11425 37.381 9.64113 37.3192C10.8204 37.2723 11.7225 36.2081 11.6926 35.0438C11.6803 34.474 11.4522 33.9301 11.0544 33.522C10.6566 33.1139 10.1187 32.872 9.54943 32.8451C8.81798 32.8153 8.09079 32.8387 7.36573 32.8387V32.8302Z" fill="#4EAD00"/>
<path fill-rule="evenodd" clip-rule="evenodd" d="M34.5191 30.8256C34.5191 32.4505 34.453 34.0798 34.534 35.7005C34.6034 37.2673 34.0536 38.7985 33.0034 39.9632C31.9531 41.128 30.4868 41.8328 28.9212 41.9253C27.1452 42.0427 25.3628 42.0227 23.5899 41.8656C20.5553 41.5735 18.3354 39.0464 18.3055 35.9884C18.2736 32.5273 18.265 29.0662 18.3055 25.6051C18.3059 24.0439 18.9202 22.5453 20.0158 21.433C21.1113 20.3207 22.6004 19.6837 24.1614 19.6597C25.7459 19.6106 27.3368 19.6064 28.9212 19.6767C30.4276 19.7562 31.8466 20.4088 32.8874 21.5007C33.9282 22.5926 34.5119 24.0412 34.5191 25.5497C34.5191 27.309 34.5191 29.0684 34.5191 30.8277V30.8256ZM22.9416 30.8256C22.9416 32.4889 22.9416 34.1523 22.9416 35.8157C22.9416 36.8115 23.4279 37.3084 24.4109 37.3276C25.7488 37.3475 27.0873 37.3475 28.4265 37.3276C29.4011 37.3127 29.9193 36.8094 29.9193 35.8348C29.9377 32.4896 29.9377 29.1437 29.9193 25.7971C29.9193 24.8118 29.3563 24.2851 28.3689 24.2766C27.1065 24.2659 25.8461 24.2766 24.5837 24.2766C23.3937 24.2766 22.9288 24.7521 22.9267 25.9591C22.9374 27.5649 22.9395 29.192 22.9416 30.817V30.8256Z" fill="#7FC700"/>
<path fill-rule="evenodd" clip-rule="evenodd" d="M73.122 30.7809C73.122 27.8536 73.122 24.9264 73.122 21.9991C73.122 20.6237 73.975 19.7109 75.3569 19.6939C77.7474 19.6619 80.1401 19.6384 82.5307 19.6939C85.5908 19.7664 87.6103 21.417 88.7534 24.153C89.4211 25.7787 89.5022 27.5862 88.9827 29.2652C88.4633 30.9443 87.3756 32.3902 85.9065 33.3548C84.9447 33.9963 83.8147 34.3391 82.6586 34.34C81.2426 34.34 79.8266 34.34 78.4106 34.34C77.6621 34.34 77.6451 34.34 77.6429 35.1141C77.6429 36.6069 77.6749 38.0997 77.6429 39.5924C77.6502 39.9531 77.5718 40.3104 77.414 40.6349C77.2563 40.9594 77.0239 41.2418 76.7357 41.4589C76.4476 41.676 76.1121 41.8217 75.7567 41.8839C75.4013 41.9461 75.0363 41.923 74.6915 41.8167C74.2376 41.6887 73.8379 41.4159 73.5534 41.0398C73.2689 40.6636 73.1151 40.2048 73.1156 39.7332C73.1156 36.7476 73.1156 33.7621 73.1156 30.7766L73.122 30.7809ZM77.6515 27.0084C77.6515 27.7548 77.6728 28.5012 77.6515 29.2433C77.6344 29.6698 77.7837 29.8191 78.2081 29.8127C79.4492 29.7935 80.6967 29.738 81.9336 29.8127C83.7611 29.9342 84.6568 28.5609 84.7464 27.1641C84.8423 25.6543 83.8208 24.2639 82.5392 24.2383C81.087 24.2084 79.6347 24.2383 78.1825 24.2255C77.7368 24.2255 77.6344 24.4174 77.6493 24.8205C77.6685 25.5562 77.6515 26.2834 77.6515 27.0084Z" fill="#4EAD00"/>
<path fill-rule="evenodd" clip-rule="evenodd" d="M55.7079 30.8064C55.7676 29.1643 55.6951 27.5052 55.9211 25.8866C56.3817 22.4576 59.6807 19.6917 63.144 19.6746C64.904 19.6661 66.664 19.6661 68.4241 19.6746C69.8081 19.6746 70.8338 20.6684 70.8274 21.9841C70.821 23.2999 69.8123 24.2553 68.4561 24.2681C66.8311 24.2809 65.204 24.2681 63.579 24.2681C61.5467 24.2681 60.1925 25.7608 60.3461 27.8016C60.3759 28.1983 60.5892 28.2111 60.8771 28.2111C62.5831 28.2111 64.2891 28.2111 65.9845 28.2111C67.3258 28.2239 68.343 29.175 68.3814 30.4183C68.4241 31.7575 67.4133 32.8067 66.0122 32.8259C64.3488 32.8493 62.6833 32.8493 61.02 32.8259C60.4996 32.8259 60.2864 32.9687 60.3461 33.504C60.3951 33.9305 60.3226 34.3933 60.4122 34.8155C60.7662 36.4682 61.8879 37.3553 63.5982 37.3745C65.2424 37.3873 66.8887 37.3575 68.5328 37.3937C69.1231 37.3833 69.694 37.6048 70.1226 38.0108C70.5513 38.4167 70.8036 38.9747 70.8253 39.5646C70.8807 40.7951 69.9723 41.9317 68.6928 41.9552C66.46 41.9957 64.2145 42.0661 61.9945 41.8102C58.5825 41.4157 55.8102 38.0889 55.7846 34.6534C55.7718 33.3739 55.7846 32.0944 55.7846 30.8149H55.7079V30.8064Z" fill="#7FC700"/>
<path fill-rule="evenodd" clip-rule="evenodd" d="M84.6398 39.5647C84.6417 39.2591 84.704 38.9569 84.8231 38.6754C84.9422 38.394 85.1157 38.1388 85.3336 37.9246C85.5516 37.7104 85.8097 37.5414 86.0932 37.4272C86.3767 37.3131 86.68 37.256 86.9856 37.2594C87.2959 37.2594 87.6033 37.321 87.8897 37.4406C88.1761 37.5602 88.4359 37.7355 88.6541 37.9563C88.8723 38.177 89.0445 38.4389 89.1608 38.7267C89.277 39.0145 89.335 39.3225 89.3313 39.6329C89.3154 40.2501 89.0611 40.8371 88.6218 41.2709C88.1824 41.7046 87.5922 41.9514 86.9749 41.9595C86.6641 41.9562 86.3571 41.8915 86.0714 41.7692C85.7857 41.647 85.527 41.4695 85.31 41.247C85.0931 41.0245 84.9222 40.7613 84.8072 40.4727C84.6921 40.184 84.6353 39.8754 84.6398 39.5647Z" fill="#7FC700"/>
<path fill-rule="evenodd" clip-rule="evenodd" d="M61.2588 12.8356C61.8777 12.8304 62.4735 13.0701 62.9165 13.5023C63.3594 13.9345 63.6137 14.5242 63.6238 15.143C63.6249 15.7738 63.3755 16.3793 62.9305 16.8263C62.4854 17.2734 61.8811 17.5254 61.2503 17.5271C60.6326 17.5204 60.0425 17.2703 59.6081 16.8311C59.1737 16.3919 58.93 15.7991 58.9301 15.1814C58.9244 14.8732 58.9806 14.567 59.0953 14.2809C59.2101 13.9948 59.3812 13.7347 59.5983 13.516C59.8155 13.2972 60.0744 13.1243 60.3596 13.0074C60.6448 12.8905 60.9506 12.8321 61.2588 12.8356Z" fill="#7FC700"/>
<path fill-rule="evenodd" clip-rule="evenodd" d="M65.7606 15.1815C65.7511 14.8751 65.8035 14.5701 65.9148 14.2846C66.0261 13.999 66.194 13.7389 66.4083 13.5199C66.6226 13.3008 66.8789 13.1273 67.1619 13.0097C67.4449 12.8921 67.7487 12.8329 68.0551 12.8357C68.3665 12.8294 68.676 12.8855 68.9653 13.0008C69.2547 13.116 69.518 13.288 69.7398 13.5067C69.9616 13.7253 70.1374 13.9861 70.2568 14.2737C70.3762 14.5614 70.4368 14.87 70.435 15.1815C70.4234 15.7988 70.1722 16.3874 69.7344 16.8228C69.2966 17.2582 68.7066 17.5062 68.0893 17.5144C67.7821 17.5179 67.4774 17.4598 67.1931 17.3438C66.9087 17.2277 66.6504 17.0559 66.4334 16.8385C66.2165 16.6211 66.0451 16.3625 65.9296 16.078C65.814 15.7934 65.7566 15.4886 65.7606 15.1815Z" fill="#7FC700"/>
</g>
<defs>
<clipPath id="clip0_5:113">
<rect width="89.3292" height="42" fill="white"/>
</clipPath>
</defs>
</svg>
