<svg width="21" height="20" viewBox="0 0 21 20" fill="none" xmlns="http://www.w3.org/2000/svg">
<g clip-path="url(#clip0_1:22)">
<path d="M19.7924 14.3181L15.3196 9.84418C16.1589 7.93886 15.7997 5.62864 14.2417 4.07017C12.2116 2.03969 8.92576 2.03942 6.89551 4.07017C4.87026 6.09589 4.87026 9.39198 6.89551 11.4177C8.50488 13.0274 10.8634 13.3339 12.7463 12.4635L17.1962 16.9145C17.9137 17.6321 19.0751 17.6322 19.7926 16.9143C20.5081 16.1985 20.508 15.0339 19.7924 14.3181ZM7.72426 10.5891C6.15579 9.02028 6.15579 6.46763 7.72426 4.89877C9.2962 3.32643 11.8407 3.32616 13.4129 4.89877C14.9813 6.46763 14.9813 9.02028 13.4129 10.5891C11.8409 12.1615 9.29644 12.1617 7.72426 10.5891ZM18.9637 16.0859C18.7043 16.3454 18.2845 16.3455 18.025 16.0859L13.7735 11.8334C14.1229 11.5583 14.4344 11.2424 14.7048 10.8868L18.9636 15.1466C19.2225 15.4056 19.2226 15.8269 18.9637 16.0859Z" fill="#333333"/>
<path d="M0.915126 9.56866H3.41375C3.73736 9.56866 3.99972 9.3063 3.99972 8.98269C3.99972 8.65908 3.73736 8.39673 3.41375 8.39673H0.915126C0.591518 8.39673 0.329163 8.65908 0.329163 8.98269C0.329163 9.3063 0.591518 9.56866 0.915126 9.56866Z" fill="#333333"/>
<path d="M0.915126 12.0688H4.35075C4.67436 12.0688 4.93671 11.8064 4.93671 11.4828C4.93671 11.1592 4.67436 10.8969 4.35075 10.8969H0.915126C0.591518 10.8969 0.329163 11.1592 0.329163 11.4828C0.329163 11.8064 0.591518 12.0688 0.915126 12.0688Z" fill="#333333"/>
<path d="M0.915126 14.5689H6.84942C7.17303 14.5689 7.43538 14.3065 7.43538 13.9829C7.43538 13.6593 7.17303 13.397 6.84942 13.397H0.915126C0.591518 13.397 0.329163 13.6593 0.329163 13.9829C0.329163 14.3065 0.591518 14.5689 0.915126 14.5689Z" fill="#333333"/>
<path d="M13.7207 15.8971H0.915126C0.591518 15.8971 0.329163 16.1594 0.329163 16.483C0.329163 16.8066 0.591518 17.069 0.915126 17.069H13.7207C14.0443 17.069 14.3067 16.8066 14.3067 16.483C14.3067 16.1594 14.0443 15.8971 13.7207 15.8971Z" fill="#333333"/>
</g>
<defs>
<clipPath id="clip0_1:22">
<rect width="20" height="20" fill="white" transform="translate(0.329163)"/>
</clipPath>
</defs>
</svg>
