<svg width="24" height="57" viewBox="0 0 24 57" fill="none" xmlns="http://www.w3.org/2000/svg">
<path d="M3.40578 56.4934C2.61141 56.4952 1.84157 56.1675 1.22991 55.5672C0.885651 55.2292 0.601083 54.814 0.392498 54.3455C0.183914 53.877 0.0554143 53.3643 0.0143588 52.8369C-0.0266967 52.3095 0.0204993 51.7777 0.153243 51.2719C0.285986 50.7661 0.501666 50.2963 0.787935 49.8894L14.8215 30.0026C15.5419 28.9817 15.5541 27.621 14.852 26.5873L1.33191 6.68147C1.0495 6.26958 0.838603 5.79563 0.711343 5.28689C0.584082 4.77814 0.542966 4.24462 0.590356 3.71699C0.637747 3.18936 0.772708 2.67802 0.987486 2.21237C1.20226 1.74673 1.49262 1.33594 1.84187 1.00364C2.19364 0.637048 2.60558 0.360536 3.05184 0.191453C3.49811 0.0223701 3.96906 -0.0356312 4.43515 0.0210863C4.90124 0.0778038 5.3524 0.248017 5.76031 0.521044C6.16823 0.79407 6.52409 1.16401 6.80558 1.60766L23.2266 25.7687C23.7266 26.4892 24 27.393 24 28.3257C24 29.2584 23.7266 30.1622 23.2266 30.8827L6.22761 55.0437C5.88655 55.531 5.4533 55.9163 4.96302 56.1681C4.47274 56.42 3.93923 56.5314 3.40578 56.4934Z" fill="white"/>
</svg>
