<svg width="24" height="57" viewBox="0 0 24 57" fill="none" xmlns="http://www.w3.org/2000/svg">
<path d="M20.5942 0.506641C21.3886 0.504803 22.1584 0.832485 22.7701 1.43281C23.1143 1.77086 23.3989 2.18604 23.6075 2.65454C23.8161 3.12305 23.9446 3.63569 23.9856 4.16312C24.0267 4.69054 23.9795 5.22237 23.8468 5.72815C23.714 6.23394 23.4983 6.70374 23.2121 7.11064L9.17855 26.9974C8.45808 28.0184 8.44591 29.379 9.14799 30.4127L22.6681 50.3185C22.9505 50.7304 23.1614 51.2044 23.2887 51.7131C23.4159 52.2219 23.457 52.7554 23.4096 53.283C23.3623 53.8106 23.2273 54.322 23.0125 54.7876C22.7977 55.2533 22.5074 55.6641 22.1581 55.9964C21.8064 56.363 21.3944 56.6395 20.9482 56.8085C20.5019 56.9776 20.0309 57.0356 19.5648 56.9789C19.0988 56.9222 18.6476 56.752 18.2397 56.479C17.8318 56.2059 17.4759 55.836 17.1944 55.3923L0.773411 31.2314C0.273363 30.5108 0 29.607 0 28.6743C0 27.7416 0.273363 26.8378 0.773411 26.1173L17.7724 1.9563C18.1134 1.46899 18.5467 1.08376 19.037 0.83189C19.5273 0.580017 20.0608 0.468586 20.5942 0.506641Z" fill="white"/>
</svg>
